<?xml version="1.0" encoding="UTF-8"?>
<!--Generator: Apple Native CoreSVG 123-->
<!DOCTYPE svg
PUBLIC "-//W3C//DTD SVG 1.1//EN"
       "http://www.w3.org/Graphics/SVG/1.1/DTD/svg11.dtd">
<svg version="1.1" xmlns="http://www.w3.org/2000/svg" xmlns:xlink="http://www.w3.org/1999/xlink" width="3300" height="2200">
 <!--glyph: "uni1006ED.medium", point size: 100.000000, font version: "Version 15.0d7e11", template writer version: "5"-->
 <g id="Notes">
  <rect height="2200" id="artboard" style="fill:white;opacity:1" width="3300" x="0" y="0"/>
  <line id="" style="fill:none;stroke:black;opacity:1;stroke-width:0.5;" x1="263" x2="3036" y1="292" y2="292"/>
  <text style="stroke:none;fill:black;font-family:-apple-system,&quot;SF Pro Display&quot;,&quot;SF Pro Text&quot;,Helvetica,sans-serif;font-weight:bold;" transform="matrix(1 0 0 1 263 322)">Weight/Scale Variations</text>
  <text style="stroke:none;fill:black;font-family:-apple-system,&quot;SF Pro Display&quot;,&quot;SF Pro Text&quot;,Helvetica,sans-serif;text-anchor:middle;" transform="matrix(1 0 0 1 559.711 322)">Ultralight</text>
  <text style="stroke:none;fill:black;font-family:-apple-system,&quot;SF Pro Display&quot;,&quot;SF Pro Text&quot;,Helvetica,sans-serif;text-anchor:middle;" transform="matrix(1 0 0 1 856.422 322)">Thin</text>
  <text style="stroke:none;fill:black;font-family:-apple-system,&quot;SF Pro Display&quot;,&quot;SF Pro Text&quot;,Helvetica,sans-serif;text-anchor:middle;" transform="matrix(1 0 0 1 1153.13 322)">Light</text>
  <text style="stroke:none;fill:black;font-family:-apple-system,&quot;SF Pro Display&quot;,&quot;SF Pro Text&quot;,Helvetica,sans-serif;text-anchor:middle;" transform="matrix(1 0 0 1 1449.84 322)">Regular</text>
  <text style="stroke:none;fill:black;font-family:-apple-system,&quot;SF Pro Display&quot;,&quot;SF Pro Text&quot;,Helvetica,sans-serif;text-anchor:middle;" transform="matrix(1 0 0 1 1746.56 322)">Medium</text>
  <text style="stroke:none;fill:black;font-family:-apple-system,&quot;SF Pro Display&quot;,&quot;SF Pro Text&quot;,Helvetica,sans-serif;text-anchor:middle;" transform="matrix(1 0 0 1 2043.27 322)">Semibold</text>
  <text style="stroke:none;fill:black;font-family:-apple-system,&quot;SF Pro Display&quot;,&quot;SF Pro Text&quot;,Helvetica,sans-serif;text-anchor:middle;" transform="matrix(1 0 0 1 2339.98 322)">Bold</text>
  <text style="stroke:none;fill:black;font-family:-apple-system,&quot;SF Pro Display&quot;,&quot;SF Pro Text&quot;,Helvetica,sans-serif;text-anchor:middle;" transform="matrix(1 0 0 1 2636.69 322)">Heavy</text>
  <text style="stroke:none;fill:black;font-family:-apple-system,&quot;SF Pro Display&quot;,&quot;SF Pro Text&quot;,Helvetica,sans-serif;text-anchor:middle;" transform="matrix(1 0 0 1 2933.4 322)">Black</text>
  <line id="" style="fill:none;stroke:black;opacity:1;stroke-width:0.5;" x1="263" x2="3036" y1="1903" y2="1903"/>
  <g id="" transform="matrix(1 0 0 1 263 1933)">
   <path d="M 9.24805 0.830078 C 13.5547 0.830078 17.1387 -2.74414 17.1387 -7.05078 C 17.1387 -11.3574 13.5449 -14.9316 9.23828 -14.9316 C 4.94141 -14.9316 1.36719 -11.3574 1.36719 -7.05078 C 1.36719 -2.74414 4.95117 0.830078 9.24805 0.830078 Z M 9.24805 -0.654297 C 5.70312 -0.654297 2.87109 -3.49609 2.87109 -7.05078 C 2.87109 -10.6055 5.69336 -13.4473 9.23828 -13.4473 C 12.793 -13.4473 15.6348 -10.6055 15.6445 -7.05078 C 15.6543 -3.49609 12.8027 -0.654297 9.24805 -0.654297 Z M 9.22852 -3.42773 C 9.69727 -3.42773 9.9707 -3.74023 9.9707 -4.25781 L 9.9707 -6.31836 L 12.1973 -6.31836 C 12.6953 -6.31836 13.0371 -6.57227 13.0371 -7.04102 C 13.0371 -7.51953 12.7148 -7.7832 12.1973 -7.7832 L 9.9707 -7.7832 L 9.9707 -10.0098 C 9.9707 -10.5273 9.69727 -10.8496 9.22852 -10.8496 C 8.75977 -10.8496 8.50586 -10.5078 8.50586 -10.0098 L 8.50586 -7.7832 L 6.29883 -7.7832 C 5.78125 -7.7832 5.44922 -7.51953 5.44922 -7.04102 C 5.44922 -6.57227 5.80078 -6.31836 6.29883 -6.31836 L 8.50586 -6.31836 L 8.50586 -4.25781 C 8.50586 -3.75977 8.75977 -3.42773 9.22852 -3.42773 Z"/>
  </g>
  <g id="" transform="matrix(1 0 0 1 281.506 1933)">
   <path d="M 11.709 2.91016 C 17.1582 2.91016 21.6699 -1.60156 21.6699 -7.05078 C 21.6699 -12.4902 17.1484 -17.0117 11.6992 -17.0117 C 6.25977 -17.0117 1.74805 -12.4902 1.74805 -7.05078 C 1.74805 -1.60156 6.26953 2.91016 11.709 2.91016 Z M 11.709 1.25 C 7.09961 1.25 3.41797 -2.44141 3.41797 -7.05078 C 3.41797 -11.6504 7.08984 -15.3516 11.6992 -15.3516 C 16.3086 -15.3516 20 -11.6504 20.0098 -7.05078 C 20.0195 -2.44141 16.3184 1.25 11.709 1.25 Z M 11.6895 -2.41211 C 12.207 -2.41211 12.5195 -2.77344 12.5195 -3.33984 L 12.5195 -6.23047 L 15.5762 -6.23047 C 16.123 -6.23047 16.5039 -6.51367 16.5039 -7.03125 C 16.5039 -7.55859 16.1426 -7.86133 15.5762 -7.86133 L 12.5195 -7.86133 L 12.5195 -10.9277 C 12.5195 -11.5039 12.207 -11.8555 11.6895 -11.8555 C 11.1719 -11.8555 10.8789 -11.4844 10.8789 -10.9277 L 10.8789 -7.86133 L 7.83203 -7.86133 C 7.26562 -7.86133 6.89453 -7.55859 6.89453 -7.03125 C 6.89453 -6.51367 7.28516 -6.23047 7.83203 -6.23047 L 10.8789 -6.23047 L 10.8789 -3.33984 C 10.8789 -2.79297 11.1719 -2.41211 11.6895 -2.41211 Z"/>
  </g>
  <g id="" transform="matrix(1 0 0 1 304.924 1933)">
   <path d="M 14.9707 5.67383 C 21.9336 5.67383 27.6953 -0.078125 27.6953 -7.04102 C 27.6953 -14.0039 21.9238 -19.7559 14.9609 -19.7559 C 8.00781 -19.7559 2.25586 -14.0039 2.25586 -7.04102 C 2.25586 -0.078125 8.01758 5.67383 14.9707 5.67383 Z M 14.9707 3.85742 C 8.93555 3.85742 4.08203 -1.00586 4.08203 -7.04102 C 4.08203 -13.0762 8.92578 -17.9395 14.9609 -17.9395 C 21.0059 -17.9395 25.8594 -13.0762 25.8691 -7.04102 C 25.8789 -1.00586 21.0156 3.85742 14.9707 3.85742 Z M 14.9512 -1.06445 C 15.5176 -1.06445 15.8691 -1.45508 15.8691 -2.06055 L 15.8691 -6.13281 L 20.1074 -6.13281 C 20.6934 -6.13281 21.1133 -6.46484 21.1133 -7.02148 C 21.1133 -7.59766 20.7227 -7.93945 20.1074 -7.93945 L 15.8691 -7.93945 L 15.8691 -12.1875 C 15.8691 -12.8027 15.5176 -13.1934 14.9512 -13.1934 C 14.3848 -13.1934 14.0625 -12.7832 14.0625 -12.1875 L 14.0625 -7.93945 L 9.83398 -7.93945 C 9.21875 -7.93945 8.80859 -7.59766 8.80859 -7.02148 C 8.80859 -6.46484 9.23828 -6.13281 9.83398 -6.13281 L 14.0625 -6.13281 L 14.0625 -2.06055 C 14.0625 -1.47461 14.3848 -1.06445 14.9512 -1.06445 Z"/>
  </g>
  <text style="stroke:none;fill:black;font-family:-apple-system,&quot;SF Pro Display&quot;,&quot;SF Pro Text&quot;,Helvetica,sans-serif;font-weight:bold;" transform="matrix(1 0 0 1 263 1953)">Design Variations</text>
  <text style="stroke:none;fill:black;font-family:-apple-system,&quot;SF Pro Display&quot;,&quot;SF Pro Text&quot;,Helvetica,sans-serif;" transform="matrix(1 0 0 1 263 1971)">Symbols are supported in up to nine weights and three scales.</text>
  <text style="stroke:none;fill:black;font-family:-apple-system,&quot;SF Pro Display&quot;,&quot;SF Pro Text&quot;,Helvetica,sans-serif;" transform="matrix(1 0 0 1 263 1989)">For optimal layout with text and other symbols, vertically align</text>
  <text style="stroke:none;fill:black;font-family:-apple-system,&quot;SF Pro Display&quot;,&quot;SF Pro Text&quot;,Helvetica,sans-serif;" transform="matrix(1 0 0 1 263 2007)">symbols with the adjacent text.</text>
  <rect height="14" id="" style="fill:#00AEEF;stroke:none;opacity:0.4;" width="3" x="776" y="1919"/>
  <g id="" transform="matrix(1 0 0 1 779 1933)">
   <path d="M 10.5273 0 L 12.373 0 L 7.17773 -14.0918 L 5.43945 -14.0918 L 0.244141 0 L 2.08984 0 L 3.50586 -4.0332 L 9.11133 -4.0332 Z M 6.2793 -11.9531 L 6.33789 -11.9531 L 8.59375 -5.52734 L 4.02344 -5.52734 Z"/>
  </g>
  <rect height="14" id="" style="fill:#00AEEF;stroke:none;opacity:0.4;" width="3" x="791.617" y="1919"/>
  <text style="stroke:none;fill:black;font-family:-apple-system,&quot;SF Pro Display&quot;,&quot;SF Pro Text&quot;,Helvetica,sans-serif;font-weight:bold;" transform="matrix(1 0 0 1 776 1953)">Margins</text>
  <text style="stroke:none;fill:black;font-family:-apple-system,&quot;SF Pro Display&quot;,&quot;SF Pro Text&quot;,Helvetica,sans-serif;" transform="matrix(1 0 0 1 776 1971)">Leading and trailing margins on the left and right side of each symbol</text>
  <text style="stroke:none;fill:black;font-family:-apple-system,&quot;SF Pro Display&quot;,&quot;SF Pro Text&quot;,Helvetica,sans-serif;" transform="matrix(1 0 0 1 776 1989)">can be adjusted by modifying the width of the blue rectangles.</text>
  <text style="stroke:none;fill:black;font-family:-apple-system,&quot;SF Pro Display&quot;,&quot;SF Pro Text&quot;,Helvetica,sans-serif;" transform="matrix(1 0 0 1 776 2007)">Modifications are automatically applied proportionally to all</text>
  <text style="stroke:none;fill:black;font-family:-apple-system,&quot;SF Pro Display&quot;,&quot;SF Pro Text&quot;,Helvetica,sans-serif;" transform="matrix(1 0 0 1 776 2025)">scales and weights.</text>
  <g id="" transform="matrix(1 0 0 1 1289 1933)">
   <path d="M 2.83203 3.11523 L 4.375 4.6582 C 5.22461 5.48828 6.19141 5.41992 7.06055 4.46289 L 17.2754 -6.66016 C 17.7051 -6.36719 18.0957 -6.37695 18.5645 -6.47461 L 19.6094 -6.68945 L 20.3027 -5.99609 L 20.2539 -5.47852 C 20.1855 -4.95117 20.3516 -4.53125 20.8496 -4.0332 L 21.6602 -3.22266 C 22.168 -2.71484 22.8223 -2.68555 23.3008 -3.16406 L 26.5527 -6.41602 C 27.0312 -6.89453 27.0117 -7.54883 26.5039 -8.05664 L 25.6836 -8.87695 C 25.1855 -9.375 24.7754 -9.55078 24.2383 -9.47266 L 23.7109 -9.41406 L 23.0566 -10.0781 L 23.3398 -11.2207 C 23.4863 -11.7871 23.3398 -12.2559 22.7148 -12.8613 L 20.3027 -15.2539 C 16.7578 -18.7793 12.2266 -18.6719 9.11133 -15.5371 C 8.69141 -15.1074 8.64258 -14.5215 8.91602 -14.0918 C 9.15039 -13.7207 9.62891 -13.4961 10.2734 -13.6621 C 11.7871 -14.043 13.3008 -13.9258 14.7852 -12.9199 L 14.1602 -11.3379 C 13.9258 -10.752 13.9453 -10.2734 14.1797 -9.83398 L 3.01758 0.439453 C 2.08008 1.30859 1.97266 2.25586 2.83203 3.11523 Z M 10.6738 -15.1465 C 13.3398 -17.1387 16.6504 -16.8262 19.0527 -14.4141 L 21.6797 -11.8066 C 21.9141 -11.5723 21.9434 -11.3867 21.8848 -11.0938 L 21.5039 -9.53125 L 23.0762 -7.95898 L 24.043 -8.04688 C 24.3262 -8.07617 24.4141 -8.05664 24.6387 -7.83203 L 25.2637 -7.20703 L 22.5098 -4.46289 L 21.8848 -5.07812 C 21.6602 -5.30273 21.6406 -5.40039 21.6699 -5.68359 L 21.7578 -6.64062 L 20.1953 -8.20312 L 18.5742 -7.89062 C 18.291 -7.83203 18.1445 -7.83203 17.9102 -8.07617 L 15.7324 -10.2539 C 15.5078 -10.4883 15.4785 -10.625 15.6055 -10.9473 L 16.5527 -13.2227 C 14.9512 -14.7559 12.8418 -15.6055 10.8008 -14.9512 C 10.7129 -14.9219 10.6445 -14.9414 10.6152 -14.9805 C 10.5859 -15.0293 10.5859 -15.0781 10.6738 -15.1465 Z M 4.10156 2.41211 C 3.61328 1.91406 3.78906 1.61133 4.12109 1.30859 L 15.0781 -8.80859 L 16.3086 -7.57812 L 6.15234 3.34961 C 5.84961 3.68164 5.46875 3.7793 5.06836 3.37891 Z"/>
  </g>
  <text style="stroke:none;fill:black;font-family:-apple-system,&quot;SF Pro Display&quot;,&quot;SF Pro Text&quot;,Helvetica,sans-serif;font-weight:bold;" transform="matrix(1 0 0 1 1289 1953)">Exporting</text>
  <text style="stroke:none;fill:black;font-family:-apple-system,&quot;SF Pro Display&quot;,&quot;SF Pro Text&quot;,Helvetica,sans-serif;" transform="matrix(1 0 0 1 1289 1971)">Symbols should be outlined when exporting to ensure the</text>
  <text style="stroke:none;fill:black;font-family:-apple-system,&quot;SF Pro Display&quot;,&quot;SF Pro Text&quot;,Helvetica,sans-serif;" transform="matrix(1 0 0 1 1289 1989)">design is preserved when submitting to Xcode.</text>
  <text id="template-version" style="stroke:none;fill:black;font-family:-apple-system,&quot;SF Pro Display&quot;,&quot;SF Pro Text&quot;,Helvetica,sans-serif;text-anchor:end;" transform="matrix(1 0 0 1 3036 1933)">Template v.1.0</text>
  <text style="stroke:none;fill:black;font-family:-apple-system,&quot;SF Pro Display&quot;,&quot;SF Pro Text&quot;,Helvetica,sans-serif;text-anchor:end;" transform="matrix(1 0 0 1 3036 1951)">Generated from lightbulb</text>
  <text style="stroke:none;fill:black;font-family:-apple-system,&quot;SF Pro Display&quot;,&quot;SF Pro Text&quot;,Helvetica,sans-serif;text-anchor:end;" transform="matrix(1 0 0 1 3036 1969)">Typeset at 100 points</text>
  <text style="stroke:none;fill:black;font-family:-apple-system,&quot;SF Pro Display&quot;,&quot;SF Pro Text&quot;,Helvetica,sans-serif;" transform="matrix(1 0 0 1 263 726)">Small</text>
  <text style="stroke:none;fill:black;font-family:-apple-system,&quot;SF Pro Display&quot;,&quot;SF Pro Text&quot;,Helvetica,sans-serif;" transform="matrix(1 0 0 1 263 1156)">Medium</text>
  <text style="stroke:none;fill:black;font-family:-apple-system,&quot;SF Pro Display&quot;,&quot;SF Pro Text&quot;,Helvetica,sans-serif;" transform="matrix(1 0 0 1 263 1586)">Large</text>
 </g>
 <g id="Guides">
  <g id="H-reference" style="fill:#27AAE1;stroke:none;" transform="matrix(1 0 0 1 339 696)">
   <path d="M 54.9316 0 L 57.666 0 L 30.5664 -70.459 L 28.0762 -70.459 L 0.976562 0 L 3.66211 0 L 12.9395 -24.4629 L 45.7031 -24.4629 Z M 29.1992 -67.0898 L 29.4434 -67.0898 L 44.8242 -26.709 L 13.8184 -26.709 Z"/>
  </g>
  <line id="Baseline-S" style="fill:none;stroke:#27AAE1;opacity:1;stroke-width:0.577;" x1="263" x2="3036" y1="696" y2="696"/>
  <line id="Capline-S" style="fill:none;stroke:#27AAE1;opacity:1;stroke-width:0.577;" x1="263" x2="3036" y1="625.541" y2="625.541"/>
  <g id="H-reference" style="fill:#27AAE1;stroke:none;" transform="matrix(1 0 0 1 339 1126)">
   <path d="M 54.9316 0 L 57.666 0 L 30.5664 -70.459 L 28.0762 -70.459 L 0.976562 0 L 3.66211 0 L 12.9395 -24.4629 L 45.7031 -24.4629 Z M 29.1992 -67.0898 L 29.4434 -67.0898 L 44.8242 -26.709 L 13.8184 -26.709 Z"/>
  </g>
  <line id="Baseline-M" style="fill:none;stroke:#27AAE1;opacity:1;stroke-width:0.577;" x1="263" x2="3036" y1="1126" y2="1126"/>
  <line id="Capline-M" style="fill:none;stroke:#27AAE1;opacity:1;stroke-width:0.577;" x1="263" x2="3036" y1="1055.54" y2="1055.54"/>
  <g id="H-reference" style="fill:#27AAE1;stroke:none;" transform="matrix(1 0 0 1 339 1556)">
   <path d="M 54.9316 0 L 57.666 0 L 30.5664 -70.459 L 28.0762 -70.459 L 0.976562 0 L 3.66211 0 L 12.9395 -24.4629 L 45.7031 -24.4629 Z M 29.1992 -67.0898 L 29.4434 -67.0898 L 44.8242 -26.709 L 13.8184 -26.709 Z"/>
  </g>
  <line id="Baseline-L" style="fill:none;stroke:#27AAE1;opacity:1;stroke-width:0.577;" x1="263" x2="3036" y1="1556" y2="1556"/>
  <line id="Capline-L" style="fill:none;stroke:#27AAE1;opacity:1;stroke-width:0.577;" x1="263" x2="3036" y1="1485.54" y2="1485.54"/>
  <rect height="119.336" id="left-margin" style="fill:#00AEEF;stroke:none;opacity:0.4;" width="18.457" x="1393.86" y="1030.79"/>
  <rect height="119.336" id="right-margin" style="fill:#00AEEF;stroke:none;opacity:0.4;" width="18.457" x="1487.37" y="1030.79"/>
 </g>
 <g id="Symbols">
  <g id="Black-L" transform="matrix(1 0 0 1 2856.03 1556)">
   <path d="M 52.4414 6.39648 L 102.295 6.39648 C 106.201 6.39648 108.984 3.66211 108.984 -0.195312 L 108.984 -8.64258 C 108.984 -23.6816 131.787 -32.666 131.787 -62.207 C 131.787 -94.0918 109.668 -115.918 77.3438 -115.918 C 45.0684 -115.918 22.9492 -94.0918 22.9492 -62.207 C 22.9492 -32.666 45.752 -23.6816 45.752 -8.64258 L 45.752 -0.195312 C 45.752 3.66211 48.4863 6.39648 52.4414 6.39648 Z M 61.9629 -9.81445 C 61.9629 -30.8594 39.3555 -39.1602 39.3555 -62.207 C 39.3555 -84.6191 54.4922 -99.4629 77.3438 -99.4629 C 100.244 -99.4629 115.381 -84.6191 115.381 -62.207 C 115.381 -39.1602 92.7734 -30.8594 92.7734 -9.81445 L 92.7734 -9.17969 L 61.9629 -9.17969 Z M 52.6855 26.0742 L 102.051 26.0742 C 106.152 26.0742 109.473 22.6074 109.473 18.7012 C 109.473 14.7949 106.152 11.3281 102.051 11.3281 L 52.6855 11.3281 C 48.584 11.3281 45.2637 14.7949 45.2637 18.7012 C 45.2637 22.6074 48.584 26.0742 52.6855 26.0742 Z M 77.3438 43.75 C 88.3301 43.75 96.1426 38.6719 96.9238 31.0059 L 57.8125 31.0059 C 58.5449 38.6719 66.2598 43.75 77.3438 43.75 Z"/>
  </g>
  <g id="Heavy-L" transform="matrix(1 0 0 1 2560.74 1556)">
   <path d="M 51.709 5.46875 L 100.244 5.46875 C 103.662 5.46875 106.104 3.07617 106.104 -0.292969 L 106.104 -9.0332 C 106.104 -24.2676 128.809 -33.3496 128.809 -62.5 C 128.809 -93.5547 107.422 -114.697 75.9766 -114.697 C 44.4824 -114.697 23.0957 -93.5547 23.0957 -62.5 C 23.0957 -33.3496 45.8496 -24.2676 45.8496 -9.0332 L 45.8496 -0.292969 C 45.8496 3.07617 48.2422 5.46875 51.709 5.46875 Z M 60.1562 -9.91211 C 60.1562 -30.3711 37.5488 -39.1113 37.5488 -62.5 C 37.5488 -85.1562 52.8809 -100.195 75.9766 -100.195 C 99.0723 -100.195 114.355 -85.1562 114.355 -62.5 C 114.355 -39.1113 91.7969 -30.3711 91.7969 -9.91211 L 91.7969 -8.39844 L 60.1562 -8.39844 Z M 52.4414 24.2676 L 99.5117 24.2676 C 103.369 24.2676 106.445 21.0449 106.445 17.334 C 106.445 13.6719 103.369 10.4004 99.5117 10.4004 L 52.4414 10.4004 C 48.584 10.4004 45.5078 13.6719 45.5078 17.334 C 45.5078 21.0449 48.584 24.2676 52.4414 24.2676 Z M 75.9766 41.3086 C 86.3281 41.3086 93.75 36.4746 94.4824 29.248 L 57.4219 29.248 C 58.1055 36.4746 65.4785 41.3086 75.9766 41.3086 Z"/>
  </g>
  <g id="Bold-L" transform="matrix(1 0 0 1 2265.59 1556)">
   <path d="M 50.8301 4.39453 L 97.9492 4.39453 C 100.83 4.39453 102.832 2.44141 102.832 -0.439453 L 102.832 -9.47266 C 102.832 -24.9023 125.488 -34.1309 125.488 -62.793 C 125.488 -92.9199 104.883 -113.33 74.4141 -113.33 C 43.8965 -113.33 23.291 -92.9199 23.291 -62.793 C 23.291 -34.1309 45.9473 -24.9023 45.9473 -9.47266 L 45.9473 -0.439453 C 45.9473 2.44141 47.9492 4.39453 50.8301 4.39453 Z M 58.1055 -9.96094 C 58.1055 -29.7852 35.5469 -39.0137 35.5469 -62.793 C 35.5469 -85.791 51.0742 -101.025 74.4141 -101.025 C 97.7051 -101.025 113.232 -85.791 113.232 -62.793 C 113.232 -39.0137 90.6738 -29.7852 90.6738 -9.96094 L 90.6738 -7.4707 L 58.1055 -7.4707 Z M 52.1484 22.2656 L 96.6309 22.2656 C 100.195 22.2656 103.076 19.2871 103.076 15.8203 C 103.076 12.3535 100.195 9.375 96.6309 9.375 L 52.1484 9.375 C 48.584 9.375 45.752 12.3535 45.752 15.8203 C 45.752 19.2871 48.584 22.2656 52.1484 22.2656 Z M 74.4141 38.623 C 84.1309 38.623 91.0645 34.082 91.7969 27.2461 L 57.0312 27.2461 C 57.666 34.082 64.5508 38.623 74.4141 38.623 Z"/>
  </g>
  <g id="Semibold-L" transform="matrix(1 0 0 1 1969.95 1556)">
   <path d="M 50.2441 3.66211 L 96.3867 3.66211 C 98.877 3.66211 100.586 1.95312 100.586 -0.537109 L 100.586 -9.76562 C 100.586 -25.3418 123.193 -34.668 123.193 -63.0371 C 123.193 -92.5293 103.125 -112.354 73.291 -112.354 C 43.457 -112.354 23.4375 -92.5293 23.4375 -63.0371 C 23.4375 -34.668 46.0449 -25.3418 46.0449 -9.76562 L 46.0449 -0.537109 C 46.0449 1.95312 47.7539 3.66211 50.2441 3.66211 Z M 56.7383 -10.0098 C 56.7383 -29.3457 34.1797 -38.916 34.1797 -62.9883 C 34.1797 -86.1816 49.8047 -101.562 73.291 -101.562 C 96.8262 -101.562 112.451 -86.1816 112.451 -62.9883 C 112.451 -38.916 89.8926 -29.3457 89.8926 -10.0098 L 89.8926 -6.88477 L 56.7383 -6.88477 Z M 51.9531 20.8496 L 94.6777 20.8496 C 98.0469 20.8496 100.732 18.1152 100.732 14.7949 C 100.732 11.4258 98.0469 8.69141 94.6777 8.69141 L 51.9531 8.69141 C 48.584 8.69141 45.8984 11.4258 45.8984 14.7949 C 45.8984 18.1152 48.584 20.8496 51.9531 20.8496 Z M 73.291 36.7188 C 82.6172 36.7188 89.2578 32.4219 89.8926 25.8789 L 56.7383 25.8789 C 57.3242 32.4219 63.916 36.7188 73.291 36.7188 Z"/>
  </g>
  <g id="Medium-L" transform="matrix(1 0 0 1 1674.07 1556)">
   <path d="M 49.8047 3.07617 L 95.2148 3.07617 C 97.4121 3.07617 98.877 1.61133 98.877 -0.585938 L 98.877 -10.0098 C 98.877 -25.6836 121.484 -35.1074 121.484 -63.1836 C 121.484 -92.1875 101.807 -111.621 72.5098 -111.621 C 43.1641 -111.621 23.4863 -92.1875 23.4863 -63.1836 C 23.4863 -35.1074 46.1426 -25.6836 46.1426 -10.0098 L 46.1426 -0.585938 C 46.1426 1.61133 47.6074 3.07617 49.8047 3.07617 Z M 55.6641 -10.0586 C 55.6641 -29.0527 33.1543 -38.8672 33.1543 -63.1348 C 33.1543 -86.4746 48.877 -102.002 72.5098 -102.002 C 96.0938 -102.002 111.816 -86.4746 111.816 -63.1348 C 111.816 -38.8672 89.3555 -29.0527 89.3555 -10.0586 L 89.3555 -6.39648 L 55.6641 -6.39648 Z M 51.8066 19.8242 L 93.1641 19.8242 C 96.3867 19.8242 98.9258 17.1875 98.9258 13.9648 C 98.9258 10.7422 96.3867 8.1543 93.1641 8.1543 L 51.8066 8.1543 C 48.584 8.1543 46.0449 10.7422 46.0449 13.9648 C 46.0449 17.1875 48.584 19.8242 51.8066 19.8242 Z M 72.5098 35.3027 C 81.4453 35.3027 87.8418 31.1523 88.4766 24.8535 L 56.4941 24.8535 C 57.0801 31.1523 63.4277 35.3027 72.5098 35.3027 Z"/>
  </g>
  <g id="Regular-L" transform="matrix(1 0 0 1 1378.43 1556)">
   <path d="M 49.1699 2.34375 L 93.6523 2.34375 C 95.459 2.34375 96.6309 1.17188 96.6309 -0.683594 L 96.6309 -10.3027 C 96.6309 -26.0742 119.189 -35.6445 119.189 -63.3789 C 119.189 -91.7969 100.098 -110.693 71.4355 -110.693 C 42.7246 -110.693 23.6328 -91.7969 23.6328 -63.3789 C 23.6328 -35.6445 46.1914 -26.0742 46.1914 -10.3027 L 46.1914 -0.683594 C 46.1914 1.17188 47.3633 2.34375 49.1699 2.34375 Z M 54.248 -10.1074 C 54.248 -28.6621 31.7871 -38.8184 31.7871 -63.3789 C 31.7871 -86.9141 47.6562 -102.539 71.4355 -102.539 C 95.2148 -102.539 111.035 -86.9141 111.035 -63.3789 C 111.035 -38.8184 88.5742 -28.6621 88.5742 -10.1074 L 88.5742 -5.81055 L 54.248 -5.81055 Z M 51.6113 18.457 L 91.2109 18.457 C 94.2383 18.457 96.6309 16.0156 96.6309 12.9395 C 96.6309 9.86328 94.2383 7.42188 91.2109 7.42188 L 51.6113 7.42188 C 48.584 7.42188 46.1914 9.86328 46.1914 12.9395 C 46.1914 16.0156 48.584 18.457 51.6113 18.457 Z M 71.4355 33.4473 C 79.9805 33.4473 86.0352 29.4922 86.6211 23.5352 L 56.2012 23.5352 C 56.7383 29.4922 62.793 33.4473 71.4355 33.4473 Z"/>
  </g>
  <g id="Light-L" transform="matrix(1 0 0 1 1082.87 1556)">
   <path d="M 48.8281 2.58789 L 91.6992 2.58789 C 93.1152 2.58789 94.043 1.66016 94.043 0.0976562 L 94.043 -8.83789 C 94.043 -25.3906 117.188 -34.5703 117.188 -63.0371 C 117.188 -91.0156 98.4375 -109.668 70.2637 -109.668 C 42.0898 -109.668 23.3398 -91.0156 23.3398 -63.0371 C 23.3398 -34.5703 46.5332 -25.3906 46.5332 -8.83789 L 46.5332 0.0976562 C 46.5332 1.66016 47.4121 2.58789 48.8281 2.58789 Z M 52.7832 -8.49609 C 52.7832 -27.1484 29.6387 -37.5977 29.6387 -62.9883 C 29.6387 -87.207 45.8984 -103.32 70.2637 -103.32 C 94.6777 -103.32 110.889 -87.207 110.889 -62.9883 C 110.889 -37.5977 87.793 -27.1484 87.793 -8.49609 L 87.793 -3.71094 L 52.7832 -3.71094 Z M 51.3672 17.4805 L 89.1602 17.4805 C 91.9434 17.4805 94.043 15.332 94.043 12.5488 C 94.043 9.7168 91.9434 7.56836 89.1602 7.56836 L 51.3672 7.56836 C 48.6328 7.56836 46.5332 9.7168 46.5332 12.5488 C 46.5332 15.332 48.6328 17.4805 51.3672 17.4805 Z M 70.2637 32.1777 C 78.6133 32.1777 84.5703 28.3203 85.1562 22.4609 L 55.4199 22.4609 C 55.9082 28.3203 61.8164 32.1777 70.2637 32.1777 Z"/>
  </g>
  <g id="Thin-L" transform="matrix(1 0 0 1 787.672 1556)">
   <path d="M 48.3398 2.92969 L 89.1113 2.92969 C 89.9902 2.92969 90.5762 2.29492 90.5762 1.2207 L 90.5762 -6.93359 C 90.5762 -24.4141 114.551 -33.1543 114.551 -62.5977 C 114.551 -89.9902 96.2402 -108.252 68.75 -108.252 C 41.2109 -108.252 22.9492 -89.9902 22.9492 -62.5977 C 22.9492 -33.1543 46.9238 -24.4141 46.9238 -6.93359 L 46.9238 1.2207 C 46.9238 2.29492 47.5098 2.92969 48.3398 2.92969 Z M 50.7812 -6.39648 C 50.7812 -25.1953 26.8066 -36.0352 26.8066 -62.5 C 26.8066 -87.6465 43.5547 -104.395 68.75 -104.395 C 93.9453 -104.395 110.693 -87.6465 110.693 -62.5 C 110.693 -36.0352 86.7188 -25.1953 86.7188 -6.39648 L 86.7188 -0.927734 L 50.7812 -0.927734 Z M 51.0742 16.2109 L 86.4258 16.2109 C 88.8672 16.2109 90.5762 14.4043 90.5762 12.0117 C 90.5762 9.57031 88.8672 7.76367 86.4258 7.76367 L 51.0742 7.76367 C 48.6328 7.76367 46.9238 9.57031 46.9238 12.0117 C 46.9238 14.4043 48.6328 16.2109 51.0742 16.2109 Z M 68.75 30.4688 C 76.8555 30.4688 82.6172 26.7578 83.1543 21.0938 L 54.2969 21.0938 C 54.7852 26.7578 60.5469 30.4688 68.75 30.4688 Z"/>
  </g>
  <g id="Ultralight-L" transform="matrix(1 0 0 1 491.742 1556)">
   <path d="M 48.0957 3.07617 L 87.793 3.07617 C 88.3789 3.07617 88.8184 2.58789 88.8184 1.75781 L 88.8184 -5.9082 C 88.8184 -23.9258 113.184 -32.4219 113.184 -62.3535 C 113.184 -89.4531 95.166 -107.568 67.9688 -107.568 C 40.7715 -107.568 22.7051 -89.4531 22.7051 -62.3535 C 22.7051 -32.4219 47.1191 -23.9258 47.1191 -5.9082 L 47.1191 1.75781 C 47.1191 2.58789 47.5098 3.07617 48.0957 3.07617 Z M 49.7559 -5.32227 C 49.7559 -24.1699 25.3418 -35.2051 25.3418 -62.2559 C 25.3418 -87.8906 42.334 -104.932 67.9688 -104.932 C 93.5547 -104.932 110.596 -87.8906 110.596 -62.2559 C 110.596 -35.2051 86.1816 -24.1699 86.1816 -5.32227 L 86.1816 0.488281 L 49.7559 0.488281 Z M 50.8789 15.5762 L 85.0586 15.5762 C 87.3047 15.5762 88.8184 13.9648 88.8184 11.7188 C 88.8184 9.47266 87.3047 7.86133 85.0586 7.86133 L 50.8789 7.86133 C 48.6328 7.86133 47.1191 9.47266 47.1191 11.7188 C 47.1191 13.9648 48.6328 15.5762 50.8789 15.5762 Z M 67.9688 29.5898 C 75.9277 29.5898 81.5918 25.9277 82.1777 20.3613 L 53.7598 20.3613 C 54.248 25.9277 59.9121 29.5898 67.9688 29.5898 Z"/>
  </g>
  <g id="Black-M" transform="matrix(1 0 0 1 2872.15 1126)">
   <path d="M 41.5039 -1.5625 L 81.0059 -1.5625 C 84.5215 -1.5625 87.0605 -4.00391 87.0605 -7.4707 L 87.0605 -13.3301 C 87.0605 -25.1465 105.078 -31.6895 105.078 -55.6152 C 105.078 -81.1523 87.207 -98.877 61.2793 -98.877 C 35.3027 -98.877 17.4316 -81.1523 17.4316 -55.6152 C 17.4316 -31.6895 35.498 -25.1465 35.498 -13.3301 L 35.498 -7.4707 C 35.498 -4.00391 37.9883 -1.5625 41.5039 -1.5625 Z M 31.7871 -55.6152 C 31.7871 -72.998 43.5059 -84.4727 61.2793 -84.4727 C 79.0039 -84.4727 90.7227 -72.998 90.7227 -55.6152 C 90.7227 -37.8906 73.0957 -31.8359 72.8027 -14.9902 L 49.707 -14.9902 C 49.4141 -31.8359 31.7871 -37.9395 31.7871 -55.6152 Z M 41.0156 14.209 L 81.4941 14.209 C 84.8633 14.209 87.5488 11.3281 87.5488 8.20312 C 87.5488 5.07812 84.8633 2.19727 81.4941 2.19727 L 41.0156 2.19727 C 37.6465 2.19727 34.9609 5.07812 34.9609 8.20312 C 34.9609 11.3281 37.6465 14.209 41.0156 14.209 Z M 61.2793 28.5645 C 70.4102 28.5645 77.002 24.3164 77.6367 17.9199 L 44.873 17.9199 C 45.5078 24.3164 51.9531 28.5645 61.2793 28.5645 Z"/>
  </g>
  <g id="Heavy-M" transform="matrix(1 0 0 1 2576.68 1126)">
   <path d="M 40.7715 -2.63672 L 79.248 -2.63672 C 82.3242 -2.63672 84.5215 -4.78516 84.5215 -7.8125 L 84.5215 -14.1602 C 84.5215 -25.9277 102.344 -32.7637 102.344 -56.0059 C 102.344 -80.7617 85.1562 -97.8027 60.0098 -97.8027 C 34.8633 -97.8027 17.6758 -80.7617 17.6758 -56.0059 C 17.6758 -32.7637 35.498 -25.9277 35.498 -14.1602 L 35.498 -7.8125 C 35.498 -4.78516 37.6953 -2.63672 40.7715 -2.63672 Z M 48.0957 -15.0879 C 48.0957 -31.5918 30.3711 -37.9883 30.3711 -56.0059 C 30.3711 -73.4863 42.1875 -85.0586 60.0098 -85.0586 C 77.832 -85.0586 89.6484 -73.4863 89.6484 -56.0059 C 89.6484 -37.9883 71.9238 -31.5918 71.9238 -15.0879 L 71.9238 -14.6484 L 48.0957 -14.6484 Z M 40.8203 12.5 L 79.1992 12.5 C 82.373 12.5 84.9121 9.81445 84.9121 6.78711 C 84.9121 3.80859 82.373 1.12305 79.1992 1.12305 L 40.8203 1.12305 C 37.6465 1.12305 35.1074 3.80859 35.1074 6.78711 C 35.1074 9.81445 37.6465 12.5 40.8203 12.5 Z M 60.0098 26.2695 C 68.6035 26.2695 74.7559 22.2656 75.3418 16.2598 L 44.6777 16.2598 C 45.2637 22.2656 51.3184 26.2695 60.0098 26.2695 Z"/>
  </g>
  <g id="Bold-M" transform="matrix(1 0 0 1 2281.36 1126)">
   <path d="M 39.8926 -3.90625 L 77.3438 -3.90625 C 79.8828 -3.90625 81.6895 -5.66406 81.6895 -8.20312 L 81.6895 -15.0391 C 81.6895 -26.8555 99.2676 -33.9355 99.2676 -56.4453 C 99.2676 -80.3223 82.8613 -96.582 58.5938 -96.582 C 34.375 -96.582 17.9688 -80.3223 17.9688 -56.4453 C 17.9688 -33.9355 35.5469 -26.8555 35.5469 -15.0391 L 35.5469 -8.20312 C 35.5469 -5.66406 37.3535 -3.90625 39.8926 -3.90625 Z M 46.2891 -15.625 C 46.2891 -31.3965 28.8086 -38.2324 28.8086 -56.3965 C 28.8086 -74.0234 40.6738 -85.6934 58.5938 -85.6934 C 76.5625 -85.6934 88.4277 -74.0234 88.4277 -56.3965 C 88.4277 -38.2324 70.9473 -31.3965 70.9473 -15.625 L 70.9473 -14.3066 L 46.2891 -14.3066 Z M 40.5762 10.5469 L 76.6602 10.5469 C 79.5898 10.5469 81.9336 8.10547 81.9336 5.27344 C 81.9336 2.44141 79.5898 -0.0488281 76.6602 -0.0488281 L 40.5762 -0.0488281 C 37.6465 -0.0488281 35.3027 2.44141 35.3027 5.27344 C 35.3027 8.10547 37.6465 10.5469 40.5762 10.5469 Z M 58.5938 23.6328 C 66.5527 23.6328 72.2168 19.9707 72.8027 14.4043 L 44.4336 14.4043 C 44.9707 19.9707 50.5859 23.6328 58.5938 23.6328 Z"/>
  </g>
  <g id="Semibold-M" transform="matrix(1 0 0 1 1985.6 1126)">
   <path d="M 39.3066 -4.73633 L 75.9766 -4.73633 C 78.2227 -4.73633 79.7363 -6.25 79.7363 -8.44727 L 79.7363 -15.6738 C 79.7363 -27.4902 97.168 -34.7656 97.168 -56.7383 C 97.168 -80.0293 81.25 -95.752 57.666 -95.752 C 34.0332 -95.752 18.1152 -80.0293 18.1152 -56.7383 C 18.1152 -34.7656 35.5469 -27.4902 35.5469 -15.6738 L 35.5469 -8.44727 C 35.5469 -6.25 37.1094 -4.73633 39.3066 -4.73633 Z M 45.0684 -16.0156 C 45.0684 -31.25 27.7344 -38.3789 27.7344 -56.7383 C 27.7344 -74.4141 39.6973 -86.1328 57.666 -86.1328 C 75.6348 -86.1328 87.5977 -74.4141 87.5977 -56.7383 C 87.5977 -38.3789 70.2637 -31.25 70.2637 -16.0156 L 70.2637 -14.0625 L 45.0684 -14.0625 Z M 40.4297 9.22852 L 74.9023 9.22852 C 77.6855 9.22852 79.9316 6.93359 79.9316 4.19922 C 79.9316 1.46484 77.6855 -0.830078 74.9023 -0.830078 L 40.4297 -0.830078 C 37.6465 -0.830078 35.4004 1.46484 35.4004 4.19922 C 35.4004 6.93359 37.6465 9.22852 40.4297 9.22852 Z M 57.666 21.875 C 65.1367 21.875 70.5078 18.3594 71.0449 13.1348 L 44.2871 13.1348 C 44.7754 18.3594 50.0977 21.875 57.666 21.875 Z"/>
  </g>
  <g id="Medium-M" transform="matrix(1 0 0 1 1689.62 1126)">
   <path d="M 38.8672 -5.37109 L 75 -5.37109 C 76.9531 -5.37109 78.2715 -6.68945 78.2715 -8.64258 L 78.2715 -16.1133 C 78.2715 -27.9297 95.6055 -35.3516 95.6055 -56.9336 C 95.6055 -79.7852 80.0293 -95.1172 56.9336 -95.1172 C 33.7891 -95.1172 18.2617 -79.7852 18.2617 -56.9336 C 18.2617 -35.3516 35.5957 -27.9297 35.5957 -16.1133 L 35.5957 -8.64258 C 35.5957 -6.68945 36.9141 -5.37109 38.8672 -5.37109 Z M 44.0918 -16.2598 C 44.0918 -31.1035 26.9043 -38.5254 26.9043 -56.9336 C 26.9043 -74.707 38.916 -86.4746 56.9336 -86.4746 C 74.9512 -86.4746 86.9629 -74.707 86.9629 -56.9336 C 86.9629 -38.5254 69.7266 -31.1035 69.7266 -16.2598 L 69.7266 -13.8672 L 44.0918 -13.8672 Z M 40.2832 8.20312 L 73.584 8.20312 C 76.2207 8.20312 78.3691 6.05469 78.3691 3.36914 C 78.3691 0.732422 76.2207 -1.46484 73.584 -1.46484 L 40.2832 -1.46484 C 37.6465 -1.46484 35.498 0.732422 35.498 3.36914 C 35.498 6.05469 37.6465 8.20312 40.2832 8.20312 Z M 56.9336 20.5078 C 64.0625 20.5078 69.1895 17.1875 69.6777 12.1582 L 44.1406 12.1582 C 44.6289 17.1875 49.707 20.5078 56.9336 20.5078 Z"/>
  </g>
  <g id="Regular-M" transform="matrix(1 0 0 1 1393.86 1126)">
   <path d="M 38.2812 -6.25 L 73.6328 -6.25 C 75.293 -6.25 76.3672 -7.27539 76.3672 -8.93555 L 76.3672 -16.748 C 76.3672 -28.5645 93.5059 -36.1816 93.5059 -57.2754 C 93.5059 -79.4922 78.4668 -94.3359 55.957 -94.3359 C 33.4473 -94.3359 18.457 -79.4922 18.457 -57.2754 C 18.457 -36.1816 35.5957 -28.5645 35.5957 -16.748 L 35.5957 -8.93555 C 35.5957 -7.27539 36.6699 -6.25 38.2812 -6.25 Z M 42.8711 -16.6504 C 42.8711 -31.0059 25.8301 -38.6719 25.8301 -57.2266 C 25.8301 -75.0977 37.8906 -86.9629 55.957 -86.9629 C 74.0723 -86.9629 86.1328 -75.0977 86.1328 -57.2266 C 86.1328 -38.6719 69.0918 -31.0059 69.0918 -16.6504 L 69.0918 -13.623 L 42.8711 -13.623 Z M 40.1367 6.93359 L 71.8262 6.93359 C 74.3164 6.93359 76.3672 4.88281 76.3672 2.34375 C 76.3672 -0.195312 74.3164 -2.24609 71.8262 -2.24609 L 40.1367 -2.24609 C 37.6465 -2.24609 35.5957 -0.195312 35.5957 2.34375 C 35.5957 4.88281 37.6465 6.93359 40.1367 6.93359 Z M 55.957 18.7012 C 62.6953 18.7012 67.4805 15.625 67.9688 10.8887 L 43.9941 10.8887 C 44.4336 15.625 49.2188 18.7012 55.957 18.7012 Z"/>
  </g>
  <g id="Light-M" transform="matrix(1 0 0 1 1098.18 1126)">
   <path d="M 37.9883 -6.00586 L 71.9238 -6.00586 C 73.1934 -6.00586 74.0234 -6.88477 74.0234 -8.20312 L 74.0234 -15.4297 C 74.0234 -27.9297 91.6992 -35.2051 91.6992 -56.9336 C 91.6992 -78.8086 77.002 -93.3594 54.9805 -93.3594 C 32.9102 -93.3594 18.2129 -78.8086 18.2129 -56.9336 C 18.2129 -35.2051 35.8887 -27.9297 35.8887 -15.4297 L 35.8887 -8.20312 C 35.8887 -6.88477 36.7188 -6.00586 37.9883 -6.00586 Z M 41.5527 -15.2344 C 41.5527 -29.6387 23.9258 -37.5977 23.9258 -56.8848 C 23.9258 -75.3906 36.3281 -87.6465 54.9805 -87.6465 C 73.584 -87.6465 85.9863 -75.3906 85.9863 -56.8848 C 85.9863 -37.5977 68.3594 -29.6387 68.3594 -15.2344 L 68.3594 -11.7188 L 41.5527 -11.7188 Z M 39.8926 6.05469 L 70.0195 6.05469 C 72.2656 6.05469 74.0234 4.24805 74.0234 1.95312 C 74.0234 -0.341797 72.2656 -2.09961 70.0195 -2.09961 L 39.8926 -2.09961 C 37.6465 -2.09961 35.8887 -0.341797 35.8887 1.95312 C 35.8887 4.24805 37.6465 6.05469 39.8926 6.05469 Z M 54.9805 17.5781 C 61.5234 17.5781 66.1621 14.5508 66.6504 9.96094 L 43.2617 9.96094 C 43.7012 14.5508 48.3398 17.5781 54.9805 17.5781 Z"/>
  </g>
  <g id="Thin-M" transform="matrix(1 0 0 1 802.809 1126)">
   <path d="M 37.5977 -5.71289 L 69.6289 -5.71289 C 70.4102 -5.71289 70.9473 -6.29883 70.9473 -7.22656 L 70.9473 -13.7207 C 70.9473 -27.0508 89.3555 -33.9355 89.3555 -56.543 C 89.3555 -77.8809 75.0977 -92.1387 53.6133 -92.1387 C 32.1289 -92.1387 17.8711 -77.8809 17.8711 -56.543 C 17.8711 -33.9355 36.2793 -27.0508 36.2793 -13.7207 L 36.2793 -7.22656 C 36.2793 -6.29883 36.8164 -5.71289 37.5977 -5.71289 Z M 39.7949 -13.3301 C 39.7949 -27.8809 21.3867 -36.1816 21.3867 -56.4941 C 21.3867 -75.7812 34.2773 -88.623 53.6133 -88.623 C 72.9492 -88.623 85.8398 -75.7812 85.8398 -56.4941 C 85.8398 -36.1816 67.4316 -27.8809 67.4316 -13.3301 L 67.4316 -9.22852 L 39.7949 -9.22852 Z M 39.6484 4.93164 L 67.5781 4.93164 C 69.5312 4.93164 70.9473 3.4668 70.9473 1.46484 C 70.9473 -0.488281 69.5312 -1.95312 67.5781 -1.95312 L 39.6484 -1.95312 C 37.6953 -1.95312 36.2793 -0.488281 36.2793 1.46484 C 36.2793 3.4668 37.6953 4.93164 39.6484 4.93164 Z M 53.6133 16.0645 C 59.9609 16.0645 64.4531 13.1348 64.8926 8.69141 L 42.334 8.69141 C 42.7246 13.1348 47.2168 16.0645 53.6133 16.0645 Z"/>
  </g>
  <g id="Ultralight-M" transform="matrix(1 0 0 1 506.781 1126)">
   <path d="M 37.3535 -5.56641 L 68.457 -5.56641 C 68.9941 -5.56641 69.3848 -6.00586 69.3848 -6.73828 L 69.3848 -12.793 C 69.3848 -26.6113 88.1348 -33.252 88.1348 -56.2988 C 88.1348 -77.3926 74.0723 -91.5039 52.9297 -91.5039 C 31.7383 -91.5039 17.6758 -77.3926 17.6758 -56.2988 C 17.6758 -33.252 36.4746 -26.6113 36.4746 -12.793 L 36.4746 -6.73828 C 36.4746 -6.00586 36.8164 -5.56641 37.3535 -5.56641 Z M 38.8672 -12.3535 C 38.8672 -26.9531 20.0684 -35.4492 20.0684 -56.25 C 20.0684 -75.9766 33.2031 -89.0625 52.9297 -89.0625 C 72.6562 -89.0625 85.7422 -75.9766 85.7422 -56.25 C 85.7422 -35.4492 66.9434 -26.9531 66.9434 -12.3535 L 66.9434 -8.00781 L 38.8672 -8.00781 Z M 39.502 4.3457 L 66.3574 4.3457 C 68.1152 4.3457 69.3848 3.02734 69.3848 1.2207 C 69.3848 -0.537109 68.1152 -1.85547 66.3574 -1.85547 L 39.502 -1.85547 C 37.6953 -1.85547 36.4746 -0.537109 36.4746 1.2207 C 36.4746 3.02734 37.6953 4.3457 39.502 4.3457 Z M 52.9297 15.2832 C 59.1309 15.2832 63.5742 12.4023 64.0137 8.05664 L 41.8457 8.05664 C 42.2363 12.4023 46.6309 15.2832 52.9297 15.2832 Z"/>
  </g>
  <g id="Black-S" transform="matrix(1 0 0 1 2885.5 696)">
   <path d="M 32.4707 -8.93555 L 63.3301 -8.93555 C 66.0645 -8.93555 68.0176 -10.8398 68.0176 -13.5254 L 68.0176 -18.1641 C 68.0176 -27.3926 82.1289 -32.5684 82.1289 -51.2207 C 82.1289 -71.1914 68.1641 -85.0098 47.9004 -85.0098 C 27.6367 -85.0098 13.6719 -71.1914 13.6719 -51.2207 C 13.6719 -32.5684 27.7832 -27.3926 27.7832 -18.1641 L 27.7832 -13.5254 C 27.7832 -10.8398 29.7363 -8.93555 32.4707 -8.93555 Z M 24.8047 -51.2207 C 24.8047 -64.8438 33.9844 -73.8281 47.9004 -73.8281 C 61.8164 -73.8281 70.9961 -64.8438 70.9961 -51.2207 C 70.9961 -37.3535 57.1777 -32.5684 56.9824 -19.3848 L 38.8184 -19.3848 C 38.8184 -32.5195 24.8047 -37.2559 24.8047 -51.2207 Z M 32.1289 3.36914 L 63.6719 3.36914 C 66.3086 3.36914 68.4082 1.12305 68.4082 -1.31836 C 68.4082 -3.75977 66.3086 -6.00586 63.6719 -6.00586 L 32.1289 -6.00586 C 29.4922 -6.00586 27.3926 -3.75977 27.3926 -1.31836 C 27.3926 1.12305 29.4922 3.36914 32.1289 3.36914 Z M 47.9004 14.5996 C 55.0293 14.5996 60.1562 11.2793 60.6445 6.29883 L 35.1562 6.29883 C 35.6445 11.2793 40.6738 14.5996 47.9004 14.5996 Z"/>
  </g>
  <g id="Heavy-S" transform="matrix(1 0 0 1 2589.62 696)">
   <path d="M 31.9336 -9.81445 L 62.207 -9.81445 C 64.6484 -9.81445 66.3574 -11.4746 66.3574 -13.8672 L 66.3574 -18.9453 C 66.3574 -28.0762 80.2246 -33.4961 80.2246 -51.5625 C 80.2246 -70.9473 66.748 -84.2773 47.0703 -84.2773 C 27.3926 -84.2773 13.8672 -70.9473 13.8672 -51.5625 C 13.8672 -33.4961 27.7832 -28.0762 27.7832 -18.9453 L 27.7832 -13.8672 C 27.7832 -11.4746 29.4922 -9.81445 31.9336 -9.81445 Z M 37.7441 -19.6777 C 37.7441 -32.5195 23.9258 -37.5488 23.9258 -51.5625 C 23.9258 -65.1855 33.1543 -74.2188 47.0703 -74.2188 C 60.9863 -74.2188 70.166 -65.1855 70.166 -51.5625 C 70.166 -37.5488 56.3965 -32.5195 56.3965 -19.6777 L 56.3965 -19.3359 L 37.7441 -19.3359 Z M 31.9824 2.14844 L 62.1582 2.14844 C 64.6484 2.14844 66.6504 0.0488281 66.6504 -2.34375 C 66.6504 -4.6875 64.6484 -6.83594 62.1582 -6.83594 L 31.9824 -6.83594 C 29.4922 -6.83594 27.4902 -4.6875 27.4902 -2.34375 C 27.4902 0.0488281 29.4922 2.14844 31.9824 2.14844 Z M 47.0703 12.9395 C 53.7598 12.9395 58.5938 9.81445 59.0332 5.12695 L 35.0586 5.12695 C 35.5469 9.81445 40.2832 12.9395 47.0703 12.9395 Z"/>
  </g>
  <g id="Bold-S" transform="matrix(1 0 0 1 2293.84 696)">
   <path d="M 31.2988 -10.791 L 60.9375 -10.791 C 63.0371 -10.791 64.502 -12.207 64.502 -14.2578 L 64.502 -19.7754 C 64.502 -28.8574 78.125 -34.4727 78.125 -51.9531 C 78.125 -70.7031 65.1855 -83.4961 46.1426 -83.4961 C 27.0996 -83.4961 14.1602 -70.7031 14.1602 -51.9531 C 14.1602 -34.4727 27.7832 -28.8574 27.7832 -19.7754 L 27.7832 -14.2578 C 27.7832 -12.207 29.248 -10.791 31.2988 -10.791 Z M 36.5234 -20.2637 C 36.5234 -32.5195 22.998 -37.8418 22.998 -51.9043 C 22.998 -65.5762 32.2266 -74.6094 46.1426 -74.6094 C 60.0586 -74.6094 69.2871 -65.5762 69.2871 -51.9043 C 69.2871 -37.8418 55.7129 -32.5195 55.7129 -20.2637 L 55.7129 -19.2871 L 36.5234 -19.2871 Z M 31.8359 0.78125 L 60.4492 0.78125 C 62.793 0.78125 64.6973 -1.17188 64.6973 -3.4668 C 64.6973 -5.76172 62.793 -7.71484 60.4492 -7.71484 L 31.8359 -7.71484 C 29.4922 -7.71484 27.5879 -5.76172 27.5879 -3.4668 C 27.5879 -1.17188 29.4922 0.78125 31.8359 0.78125 Z M 46.1426 11.084 C 52.3926 11.084 56.8359 8.20312 57.2754 3.80859 L 35.0098 3.80859 C 35.4004 8.20312 39.8438 11.084 46.1426 11.084 Z"/>
  </g>
  <g id="Semibold-S" transform="matrix(1 0 0 1 1997.78 696)">
   <path d="M 30.9082 -11.4258 L 60.0586 -11.4258 C 61.9629 -11.4258 63.1836 -12.6953 63.1836 -14.502 L 63.1836 -20.3613 C 63.1836 -29.3945 76.6602 -35.2051 76.6602 -52.1973 C 76.6602 -70.5566 64.1113 -82.959 45.5078 -82.959 C 26.8555 -82.959 14.3066 -70.5566 14.3066 -52.1973 C 14.3066 -35.2051 27.7832 -29.3945 27.7832 -20.3613 L 27.7832 -14.502 C 27.7832 -12.6953 29.0527 -11.4258 30.9082 -11.4258 Z M 35.6934 -20.6543 C 35.6934 -32.5684 22.3145 -38.0859 22.3145 -52.1973 C 22.3145 -65.8203 31.5918 -74.9023 45.5078 -74.9023 C 59.375 -74.9023 68.6523 -65.8203 68.6523 -52.1973 C 68.6523 -38.0859 55.2734 -32.5684 55.2734 -20.6543 L 55.2734 -19.2383 L 35.6934 -19.2383 Z M 31.7383 -0.146484 L 59.2285 -0.146484 C 61.4746 -0.146484 63.3301 -2.05078 63.3301 -4.24805 C 63.3301 -6.44531 61.4746 -8.34961 59.2285 -8.34961 L 31.7383 -8.34961 C 29.4922 -8.34961 27.6367 -6.44531 27.6367 -4.24805 C 27.6367 -2.05078 29.4922 -0.146484 31.7383 -0.146484 Z M 45.5078 9.81445 C 51.416 9.81445 55.6152 7.08008 56.0547 2.92969 L 34.9609 2.92969 C 35.3516 7.08008 39.502 9.81445 45.5078 9.81445 Z"/>
  </g>
  <g id="Medium-S" transform="matrix(1 0 0 1 1701.56 696)">
   <path d="M 30.5664 -11.9629 L 59.4238 -11.9629 C 61.084 -11.9629 62.207 -13.0859 62.207 -14.6973 L 62.207 -20.8008 C 62.207 -29.7852 75.5859 -35.7422 75.5859 -52.3926 C 75.5859 -70.4102 63.2812 -82.5195 45.0195 -82.5195 C 26.709 -82.5195 14.4531 -70.4102 14.4531 -52.3926 C 14.4531 -35.7422 27.7832 -29.7852 27.7832 -20.8008 L 27.7832 -14.6973 C 27.7832 -13.0859 28.9062 -11.9629 30.5664 -11.9629 Z M 35.0586 -20.9473 C 35.0586 -32.5684 21.8262 -38.2324 21.8262 -52.3926 C 21.8262 -66.0645 31.1035 -75.0977 45.0195 -75.0977 C 58.8867 -75.0977 68.1641 -66.0645 68.1641 -52.3926 C 68.1641 -38.2324 54.9316 -32.5684 54.9316 -20.9473 L 54.9316 -19.2383 L 35.0586 -19.2383 Z M 31.6406 -0.878906 L 58.3496 -0.878906 C 60.498 -0.878906 62.3047 -2.68555 62.3047 -4.83398 C 62.3047 -7.03125 60.498 -8.83789 58.3496 -8.83789 L 31.6406 -8.83789 C 29.4922 -8.83789 27.6855 -7.03125 27.6855 -4.83398 C 27.6855 -2.68555 29.4922 -0.878906 31.6406 -0.878906 Z M 45.0195 8.83789 C 50.6836 8.83789 54.6875 6.20117 55.127 2.24609 L 34.9121 2.24609 C 35.2539 6.20117 39.2578 8.83789 45.0195 8.83789 Z"/>
  </g>
  <g id="Regular-S" transform="matrix(1 0 0 1 1405.48 696)">
   <path d="M 30.1758 -12.5977 L 58.5449 -12.5977 C 60.0098 -12.5977 60.9375 -13.5742 60.9375 -14.9902 L 60.9375 -21.3867 C 60.9375 -30.3223 74.1211 -36.4258 74.1211 -52.6367 C 74.1211 -70.2637 62.207 -81.9824 44.3848 -81.9824 C 26.5137 -81.9824 14.5996 -70.2637 14.5996 -52.6367 C 14.5996 -36.4258 27.7832 -30.3223 27.7832 -21.3867 L 27.7832 -14.9902 C 27.7832 -13.5742 28.7109 -12.5977 30.1758 -12.5977 Z M 34.2773 -21.3379 C 34.2773 -32.5684 21.1914 -38.4766 21.1914 -52.6367 C 21.1914 -66.3086 30.4688 -75.3906 44.3848 -75.3906 C 58.252 -75.3906 67.5293 -66.3086 67.5293 -52.6367 C 67.5293 -38.4766 54.4922 -32.5684 54.4922 -21.3379 L 54.4922 -19.1895 L 34.2773 -19.1895 Z M 31.543 -1.80664 L 57.1777 -1.80664 C 59.2285 -1.80664 60.9375 -3.51562 60.9375 -5.61523 C 60.9375 -7.71484 59.2285 -9.47266 57.1777 -9.47266 L 31.543 -9.47266 C 29.4922 -9.47266 27.7832 -7.71484 27.7832 -5.61523 C 27.7832 -3.51562 29.4922 -1.80664 31.543 -1.80664 Z M 44.3848 7.56836 C 49.707 7.56836 53.5156 5.12695 53.9062 1.36719 L 34.8633 1.36719 C 35.1562 5.12695 38.9648 7.56836 44.3848 7.56836 Z"/>
  </g>
  <g id="Light-S" transform="matrix(1 0 0 1 1109.68 696)">
   <path d="M 29.8828 -12.4023 L 57.0312 -12.4023 C 58.1543 -12.4023 58.8867 -13.1836 58.8867 -14.3066 L 58.8867 -20.2148 C 58.8867 -29.7363 72.5586 -35.5957 72.5586 -52.3438 C 72.5586 -69.6289 60.9375 -81.1523 43.457 -81.1523 C 26.0254 -81.1523 14.3555 -69.6289 14.3555 -52.3438 C 14.3555 -35.5957 28.0273 -29.7363 28.0273 -20.2148 L 28.0273 -14.3066 C 28.0273 -13.1836 28.7598 -12.4023 29.8828 -12.4023 Z M 33.0566 -20.1172 C 33.0566 -31.3477 19.4824 -37.5 19.4824 -52.3438 C 19.4824 -66.5527 29.0527 -76.0254 43.457 -76.0254 C 57.8613 -76.0254 67.4316 -66.5527 67.4316 -52.3438 C 67.4316 -37.5 53.8574 -31.3477 53.8574 -20.1172 L 53.8574 -17.5293 L 33.0566 -17.5293 Z M 31.3477 -2.53906 L 55.5664 -2.53906 C 57.4219 -2.53906 58.8867 -4.05273 58.8867 -5.95703 C 58.8867 -7.8125 57.4219 -9.32617 55.5664 -9.32617 L 31.3477 -9.32617 C 29.4922 -9.32617 28.0273 -7.8125 28.0273 -5.95703 C 28.0273 -4.05273 29.4922 -2.53906 31.3477 -2.53906 Z M 43.457 6.5918 C 48.6816 6.5918 52.3438 4.15039 52.7344 0.537109 L 34.1797 0.537109 C 34.5215 4.15039 38.2324 6.5918 43.457 6.5918 Z"/>
  </g>
  <g id="Thin-S" transform="matrix(1 0 0 1 814.161 696)">
   <path d="M 29.541 -12.1582 L 54.9805 -12.1582 C 55.7129 -12.1582 56.1523 -12.6953 56.1523 -13.4766 L 56.1523 -18.7012 C 56.1523 -29.0039 70.459 -34.4727 70.459 -52.002 C 70.459 -68.8477 59.1797 -80.0293 42.2852 -80.0293 C 25.3418 -80.0293 14.0625 -68.8477 14.0625 -52.002 C 14.0625 -34.4727 28.3691 -29.0039 28.3691 -18.7012 L 28.3691 -13.4766 C 28.3691 -12.6953 28.8086 -12.1582 29.541 -12.1582 Z M 31.4941 -18.457 C 31.4941 -29.7852 17.2363 -36.2305 17.2363 -51.9531 C 17.2363 -66.8945 27.2461 -76.8555 42.2852 -76.8555 C 57.2754 -76.8555 67.2852 -66.8945 67.2852 -51.9531 C 67.2852 -36.2305 53.0273 -29.7852 53.0273 -18.457 L 53.0273 -15.332 L 31.4941 -15.332 Z M 31.1035 -3.56445 L 53.418 -3.56445 C 54.9805 -3.56445 56.1523 -4.78516 56.1523 -6.34766 C 56.1523 -7.95898 54.9805 -9.17969 53.418 -9.17969 L 31.1035 -9.17969 C 29.541 -9.17969 28.3691 -7.95898 28.3691 -6.34766 C 28.3691 -4.78516 29.541 -3.56445 31.1035 -3.56445 Z M 42.2852 5.22461 C 47.2656 5.22461 50.8301 2.92969 51.1719 -0.585938 L 33.3496 -0.585938 C 33.6426 2.92969 37.207 5.22461 42.2852 5.22461 Z"/>
  </g>
  <g id="Ultralight-S" transform="matrix(1 0 0 1 518.061 696)">
   <path d="M 29.3457 -12.0605 L 53.9551 -12.0605 C 54.4434 -12.0605 54.7852 -12.4023 54.7852 -13.0371 L 54.7852 -17.9199 C 54.7852 -28.6133 69.3848 -33.8867 69.3848 -51.8066 C 69.3848 -68.4082 58.3008 -79.4922 41.6504 -79.4922 C 25 -79.4922 13.916 -68.4082 13.916 -51.8066 C 13.916 -33.8867 28.5645 -28.6133 28.5645 -17.9199 L 28.5645 -13.0371 C 28.5645 -12.4023 28.8574 -12.0605 29.3457 -12.0605 Z M 30.7129 -17.5781 C 30.7129 -29.0039 16.1133 -35.5957 16.1133 -51.7578 C 16.1133 -67.0898 26.3184 -77.2949 41.6504 -77.2949 C 57.0312 -77.2949 67.2363 -67.0898 67.2363 -51.7578 C 67.2363 -35.5957 52.5879 -29.0039 52.5879 -17.5781 L 52.5879 -14.209 L 30.7129 -14.209 Z M 31.0059 -4.10156 L 52.2949 -4.10156 C 53.7598 -4.10156 54.7852 -5.12695 54.7852 -6.5918 C 54.7852 -8.05664 53.7598 -9.08203 52.2949 -9.08203 L 31.0059 -9.08203 C 29.541 -9.08203 28.5645 -8.05664 28.5645 -6.5918 C 28.5645 -5.12695 29.541 -4.10156 31.0059 -4.10156 Z M 41.6504 4.54102 C 46.582 4.54102 50.0488 2.29492 50.3906 -1.12305 L 32.9102 -1.12305 C 33.2031 2.29492 36.7188 4.54102 41.6504 4.54102 Z"/>
  </g>
 </g>
</svg>
